<svg xmlns="http://www.w3.org/2000/svg" width="101" height="100" viewBox="0 0 101 100">
  <path fill="#FFF" fill-rule="evenodd" d="M96.3116477,0 L4.64602273,0 C2.34289773,0 0.477272727,1.865625 0.477272727,4.165625 L0.477272727,95.834375 C0.477272727,98.134375 2.34289773,100 4.64602273,100 L53.6022727,100 L53.6022727,62.5 L41.1022727,62.5 L41.1022727,46.875 L53.6022727,46.875 L53.6022727,34.375 C53.6022727,21.459375 61.7803977,15.103125 73.3022727,15.103125 C78.8210227,15.103125 83.5647727,15.515625 84.9460227,15.696875 L84.9460227,29.196875 L76.9553977,29.2 C70.6897727,29.2 69.2272727,32.178125 69.2272727,36.546875 L69.2272727,46.875 L84.8522727,46.875 L81.7272727,62.5 L69.2272727,62.5 L69.4772727,100 L96.3116477,100 C98.6116477,100 100.477273,98.134375 100.477273,95.834375 L100.477273,4.165625 C100.477273,1.865625 98.6116477,0 96.3116477,0"/>
</svg>
