<svg xmlns="http://www.w3.org/2000/svg" width="100" height="100" viewBox="0 0 100 100">
  <g fill="#272727">
    <path d="M68.75,0 L31.25,0 C13.99375,0 0,13.99375 0,31.25 L0,68.75 C0,86.00625 13.99375,100 31.25,100 L68.75,100 C86.00625,100 100,86.00625 100,68.75 L100,31.25 C100,13.99375 86.00625,0 68.75,0 Z M90.625,68.75 C90.625,80.8125 80.8125,90.625 68.75,90.625 L31.25,90.625 C19.1875,90.625 9.375,80.8125 9.375,68.75 L9.375,31.25 C9.375,19.1875 19.1875,9.375 31.25,9.375 L68.75,9.375 C80.8125,9.375 90.625,19.1875 90.625,31.25 L90.625,68.75 Z"/>
    <path d="M52,26 C37.6415,26 26,37.6415 26,52 C26,66.3585 37.6415,78 52,78 C66.3585,78 78,66.3585 78,52 C78,37.6415 66.3585,26 52,26 Z M52,68.25 C43.043,68.25 35.75,60.957 35.75,52 C35.75,43.0365 43.043,35.75 52,35.75 C60.957,35.75 68.25,43.0365 68.25,52 C68.25,60.957 60.957,68.25 52,68.25 Z"/>
    <circle cx="77.5" cy="22.5" r="3.5"/>
  </g>
</svg>
