<svg xmlns="http://www.w3.org/2000/svg" width="120" height="100" viewBox="0 0 120 100">
  <path fill="#272727" fill-rule="evenodd" d="M119.113636,11.8361853 C114.745863,13.8434916 110.047816,15.2009229 105.119691,15.8123438 C110.151722,12.6860219 114.014808,7.74081907 115.833168,1.84579888 C111.127699,4.73755047 105.910121,6.8371467 100.362269,7.97154393 C95.9165661,3.06479523 89.5857067,0 82.5794567,0 C69.1235973,0 58.217152,11.3016728 58.217152,25.2451452 C58.217152,27.2216881 58.4323864,29.1482407 58.8480114,30.997885 C38.5974254,29.9442415 20.6476207,19.8923284 8.63160511,4.61834263 C6.53492543,8.34839454 5.33258168,12.6860219 5.33258168,17.3120554 C5.33258168,26.0680638 9.63355824,33.7973467 16.1685192,38.3233993 C12.1755504,38.1926553 8.42008168,37.058258 5.13590199,35.1663142 C5.13219105,35.2739858 5.13219105,35.377812 5.13219105,35.4854836 C5.13219105,47.7177466 13.5300426,57.9196308 24.6776989,60.2384157 C22.6329723,60.8152278 20.4806286,61.122861 18.257777,61.122861 C16.6880504,61.122861 15.1628551,60.965199 13.6747692,60.6729475 C16.773402,70.7017881 25.7724254,78.0003845 36.4339489,78.2041915 C28.0954723,84.9759662 17.5898082,89.0098058 6.17496449,89.0098058 C4.20816761,89.0098058 2.27105824,88.890598 0.363636364,88.6598731 C11.1439098,95.8200346 23.9503551,100 37.7105114,100 C82.5237926,100 107.027113,61.5304749 107.027113,28.1715055 C107.027113,27.0755624 107.004847,25.9873101 106.956605,24.9029033 C111.717738,21.345895 115.848011,16.900596 119.113636,11.8361853"/>
</svg>
