<svg xmlns="http://www.w3.org/2000/svg" width="97" height="43" viewBox="0 0 97 43">
  <g fill="none">
    <path fill="#272727" d="M56.5885859,0.42 C60.1391087,0.42 63.3297333,1.16517941 66.1605556,2.65556059 C68.9913778,4.14594177 71.2144195,6.20707631 72.8297475,8.83902605 C74.4450754,11.4709758 75.2527273,14.4358386 75.2527273,17.7337033 C75.2527273,21.4755113 74.2211719,24.7812541 72.1580303,27.6510306 C70.0948887,30.5208071 67.3200848,32.5740142 63.8335354,33.8107135 C64.4732692,34.5083352 65.1049969,34.99984 65.7287374,35.2852322 C66.3524779,35.5706243 67.0321849,35.7133182 67.7678788,35.7133182 C69.6550936,35.7133182 71.3503629,34.9364291 72.8537374,33.3826274 L76.98,38.2342695 C75.8604658,39.5978098 74.4930552,40.6363045 72.8777273,41.3497848 C71.2623993,42.0632652 69.4951611,42.42 67.5759596,42.42 C65.7207315,42.42 64.0414553,42.1821768 62.5380808,41.7065232 C61.0347063,41.2308696 59.5233578,40.446053 58.0039899,39.3520498 C56.484622,38.2580466 54.7813562,36.7280506 52.8941414,34.7620159 C49.9833524,34.2863623 47.3924693,33.255795 45.1214141,31.6702831 C42.850359,30.0847712 41.0831208,28.0870562 39.8196465,25.6770781 C38.5561721,23.2671001 37.9244444,20.6193349 37.9244444,17.7337033 C37.9244444,14.4358386 38.7320963,11.4709758 40.3474242,8.83902605 C41.9627522,6.20707631 44.1857939,4.14594177 47.0166162,2.65556059 C49.8474384,1.16517941 53.0380631,0.42 56.5885859,0.42 Z M19.6921212,0.42 C22.826817,0.42 25.6416037,0.943211076 28.1365657,1.98964892 C30.6315276,3.03608677 32.7106314,4.54230048 34.3739394,6.50833522 L28.3284848,11.9307588 C26.0574297,9.45736023 23.3386017,8.2206795 20.1719192,8.2206795 C17.2931169,8.2206795 14.9741165,9.08477052 13.2148485,10.8129785 C11.4555804,12.5411864 10.5759596,14.8480716 10.5759596,17.7337033 C10.5759596,19.5728971 10.9757872,21.2138773 11.7754545,22.6566931 C12.5751218,24.0995089 13.6946393,25.2252055 15.1340404,26.0338165 C16.5734415,26.8424276 18.2207315,27.2467271 20.0759596,27.2467271 C21.899201,27.2467271 23.6104634,26.8820648 25.209798,26.1527293 L25.209798,17.0202265 L33.6062626,17.0202265 L33.6062626,30.814111 C31.6870611,32.1776512 29.4800125,33.2240734 26.9850505,33.9534088 C24.4900885,34.6827443 21.995164,35.0474066 19.500202,35.0474066 C15.9816659,35.0474066 12.8150309,34.3101546 10.000202,32.8356285 C7.18537313,31.3611025 4.9783165,29.3078954 3.3789899,26.6759456 C1.7796633,24.0439959 0.98,21.0632783 0.98,17.7337033 C0.98,14.4041283 1.7796633,11.4234107 3.3789899,8.79146093 C4.9783165,6.15951119 7.20136624,4.10630409 10.0481818,2.63177803 C12.8949974,1.15725197 16.1096117,0.42 19.6921212,0.42 Z M56.5885859,8.2206795 C54.8932912,8.2206795 53.357953,8.61705153 51.9825253,9.40980747 C50.6070975,10.2025634 49.5195663,11.3203325 48.719899,12.7631484 C47.9202317,14.2059642 47.520404,15.8627993 47.520404,17.7337033 C47.520404,19.6046073 47.9202317,21.2614424 48.719899,22.7042582 C49.5195663,24.147074 50.6070975,25.2648431 51.9825253,26.0575991 C53.357953,26.850355 54.8932912,27.2467271 56.5885859,27.2467271 C58.2838805,27.2467271 59.8192187,26.850355 61.1946465,26.0575991 C62.5700742,25.2648431 63.6576054,24.147074 64.4572727,22.7042582 C65.25694,21.2614424 65.6567677,19.6046073 65.6567677,17.7337033 C65.6567677,15.8627993 65.25694,14.2059642 64.4572727,12.7631484 C63.6576054,11.3203325 62.5700742,10.2025634 61.1946465,9.40980747 C59.8192187,8.61705153 58.2838805,8.2206795 56.5885859,8.2206795 Z"/>
    <path fill="#2AC653" d="M91.48,34.42 C89.9361326,34.42 88.6335141,33.8985237 87.5721053,32.8555556 C86.5106964,31.8125874 85.98,30.4926006 85.98,28.8955556 C85.98,27.2659178 86.5026556,25.945931 87.5479825,24.9355556 C88.5933093,23.9251801 89.9039687,23.42 91.48,23.42 C93.0881952,23.42 94.4068954,23.9251801 95.4361404,24.9355556 C96.4653853,25.945931 96.98,27.2659178 96.98,28.8955556 C96.98,30.4926006 96.4573444,31.8125874 95.4120175,32.8555556 C94.3666907,33.8985237 93.0560313,34.42 91.48,34.42 Z"/>
  </g>
</svg>
