<svg xmlns="http://www.w3.org/2000/svg" width="230" height="271" viewBox="0 0 230 271">
  <g fill="none" fill-rule="evenodd">
    <g transform="translate(35 71)">
      <path fill="#2AC653" d="M27,0 C27,0 9.38698953,3.08972293 3.22691688,12.4032543 C-2.927884,21.7167856 1.61375279,34 1.61375279,34 C1.61375279,34 16.5434282,28.7443396 21.5911557,21.5028014 C26.6336114,14.269092 27,0 27,0"/>
      <path fill="#77E995" d="M17.0526316,11.3333333 C17.0526316,11.3333333 7.78184649,13.1326291 4.54019108,18.5661189 C1.30103118,24.0023474 3.69172085,31.1666667 3.69172085,31.1666667 C3.69172085,31.1666667 11.5550435,28.1048513 14.2027698,23.8818466 C16.860478,19.6561033 17.0526316,11.3333333 17.0526316,11.3333333"/>
    </g>
    <g transform="translate(0 213)">
      <path fill="#47D76D" d="M2.75660736,1.56319402e-13 C2.75660736,1.56319402e-13 -4.49752744,26.3911949 4.52956983,41.0668609 C13.5647814,55.7425269 33.8219934,57.5774893 33.8219934,57.5774893 C33.8219934,57.5774893 36.264381,33.4568082 29.4119013,21.6928847 C22.571593,9.93299406 2.75660736,1.56319402e-13 2.75660736,1.56319402e-13"/>
      <path fill="#77E995" d="M12.8202994,21.3125837 C12.8202994,21.3125837 8.77940552,35.9922826 13.802123,44.1508076 C18.8207834,52.3133654 30.0833551,53.3256194 30.0833551,53.3256194 C30.0833551,53.3256194 31.4465482,39.916279 27.6369103,33.3830065 C23.8313295,26.8416681 12.8202994,21.3125837 12.8202994,21.3125837"/>
    </g>
    <g transform="translate(155)">
      <path fill="#2AC653" d="M29.5804346,47.3155541 C49.7915916,58.4694923 74.2761022,46.8487594 74.2761022,46.8487594 C74.2761022,46.8487594 60.8982985,16.7650648 45.1490844,7.56429422 C29.3918453,-1.63238169 0,0.136524811 0,0.136524811 C0,0.136524811 9.36927765,36.1698053 29.5804346,47.3155541 Z"/>
      <path fill="#77E995" d="M25.8423537,18.4107211 C25.8423537,18.4107211 31.0506288,38.4501387 42.2857369,44.6495008 C53.520845,50.848863 67.1273634,44.3751565 67.1273634,44.3751565 C67.1273634,44.3751565 59.7001544,27.6483439 50.9488077,22.5422643 C42.1854234,17.43209 25.8423537,18.4107211 25.8423537,18.4107211"/>
    </g>
  </g>
</svg>
