<svg xmlns="http://www.w3.org/2000/svg" width="368" height="491" viewBox="0 0 368 491">
  <g fill="none" fill-rule="evenodd" opacity=".803">
    <path fill="#2AC653" d="M367.27761,183.5908 C367.27761,284.983074 285.060373,367.181601 183.638805,367.181601 C82.2200191,367.181601 -7.10542736e-13,284.983074 -7.10542736e-13,183.5908 C-7.10542736e-13,82.1957448 82.2200191,1.70530257e-13 183.638805,1.70530257e-13 C285.060373,1.70530257e-13 367.27761,82.1957448 367.27761,183.5908"/>
    <path fill="#47D76D" d="M291.550285,160.878708 C291.550285,237.189223 229.675228,299.045325 153.350323,299.045325 C77.0226367,299.045325 15.1475793,237.189223 15.1475793,160.878708 C15.1475793,84.5709746 77.0226367,22.7120919 153.350323,22.7120919 C229.675228,22.7120919 291.550285,84.5709746 291.550285,160.878708"/>
    <path fill="#77E995" d="M298.282511 145.643862C298.282511 168.439393 279.798726 186.921128 256.997234 186.921128 234.195743 186.921128 215.711957 168.439393 215.711957 145.643862 215.711957 122.848331 234.195743 104.369377 256.997234 104.369377 279.798726 104.369377 298.282511 122.848331 298.282511 145.643862M320.840297 214.625097C320.840297 231.563211 307.108213 245.288924 290.171234 245.288924 273.231473 245.288924 259.499389 231.563211 259.499389 214.625097 259.499389 197.692545 273.231473 183.964051 290.171234 183.964051 307.108213 183.964051 320.840297 197.692545 320.840297 214.625097M300.938234 283.606053C300.938234 300.541386 287.20615 314.267099 270.269171 314.267099 253.32941 314.267099 239.597326 300.541386 239.597326 283.606053 239.597326 266.67072 253.32941 252.942226 270.269171 252.942226 287.20615 252.942226 300.938234 266.67072 300.938234 283.606053"/>
    <path fill="#43E36E" d="M128.444507 239.830624C128.444507 256.765956 114.712423 270.49167 97.7754436 270.49167 80.8356826 270.49167 67.1035985 256.765956 67.1035985 239.830624 67.1035985 222.895291 80.8356826 209.169578 97.7754436 209.169578 114.712423 209.169578 128.444507 222.895291 128.444507 239.830624M132.425865 172.177738C132.425865 189.110289 118.693781 202.836002 101.756802 202.836002 84.8170411 202.836002 71.084957 189.110289 71.084957 172.177738 71.084957 155.239624 84.8170411 141.51391 101.756802 141.51391 118.693781 141.51391 132.425865 155.239624 132.425865 172.177738"/>
    <path fill="#77E995" d="M204.076686,101.873717 C204.076686,118.806269 190.344602,132.531982 173.407623,132.531982 C156.467862,132.531982 142.735778,118.806269 142.735778,101.873717 C142.735778,84.935603 156.467862,71.2098899 173.407623,71.2098899 C190.344602,71.2098899 204.076686,84.935603 204.076686,101.873717"/>
    <polygon fill="#F5F5F5" points="257.418 226.206 293.526 232.158 265.355 221.053 307.808 196.458 182.206 239.838 179.54 200.335 273.687 154.805 232.023 165.916 231.23 145.287 227.661 167.104 178.508 185.071 172.905 102.049 164.064 205.26 117.356 183.764 114.58 163.93 113.387 182.573 81.249 170.277 162.798 220.038 157.551 281.31 112.199 256.751 102.673 219.862 102.673 251.992 72.916 241.284 156.141 297.775 138.222 490.477 199.092 489.996 188.504 333.161 287.177 280.553 262.18 287.398 260.99 262.7 256.227 288.883 187.185 313.609 184.003 266.477"/>
  </g>
</svg>
