<svg xmlns="http://www.w3.org/2000/svg" width="515" height="631" viewBox="0 0 515 631">
  <g fill="none" fill-rule="evenodd">
    <path fill="#47D76D" d="M511.035296,403.153271 C495.448613,450.961397 431.699527,469.404933 388.088226,450.961397 C356.223032,437.542819 329.380131,393.937111 346.156009,362.074997 C362.928148,330.201667 396.472426,308.400682 431.699527,305.050711 C476.993651,303.371987 520.612431,343.623984 514.408422,388.355072 C513.877398,393.234216 512.781693,398.120836 511.035296,403.153271"/>
    <path fill="#77E995" d="M473.33658,415.081752 C462.857317,447.263802 419.995047,459.67475 390.659809,447.263802 C369.232396,438.227499 351.187671,408.876278 362.46702,387.417853 C373.738926,365.966878 396.301344,351.294991 419.995047,349.034053 C450.442963,347.905447 479.770758,374.999455 475.602869,405.114256 C475.249343,408.403231 474.51252,411.692207 473.33658,415.081752"/>
    <path fill="#54D275" d="M300.634472,186.309363 C329.219204,131.864901 410.005225,122.607817 458.929236,153.706708 C494.703077,176.363674 518.23005,234.366548 491.459393,269.358849 C464.688735,304.343705 419.706415,323.799588 376.467249,320.67295 C321.395542,313.477958 276.9134,256.100411 293.527482,203.453767 C295.181051,197.691818 297.49157,192.015479 300.634472,186.309363"/>
    <path fill="#77E995" d="M386.694558,195.295618 C399.309568,171.167481 434.959393,167.063803 456.548043,180.849188 C472.3372,190.891128 482.719924,216.601316 470.909575,232.113588 C459.095519,247.618432 439.238559,256.234298 420.160303,254.856502 C395.857312,251.666403 376.222839,226.234745 383.557492,202.89392 C384.291699,200.342584 385.304015,197.828385 386.694558,195.295618"/>
    <path fill="#54D275" d="M221.031639,205.841847 C205.449024,158.040433 141.705022,139.592863 98.0946408,158.040433 C66.2226396,171.459226 39.3803043,215.061894 56.155829,246.928257 C72.9313537,278.794621 106.474924,300.595954 141.705022,303.949718 C186.994451,305.620991 230.612311,265.379566 224.408434,220.647761 C223.87742,215.768539 222.785478,210.878101 221.031639,205.841847"/>
    <path fill="#6CDF8A" d="M205.647286,213.617202 C196.424199,185.185891 158.691697,174.217448 132.873744,185.185891 C114.007493,193.159206 98.1226675,219.103291 108.052078,238.056254 C117.97777,257.001747 137.83659,269.975657 158.691697,271.969919 C185.50222,272.96705 211.316455,249.024697 207.651012,222.415858 C207.327591,219.517829 206.688183,216.61233 205.647286,213.617202"/>
    <path fill="#54D275" d="M10.634806,424.69172 C39.2161044,479.13315 119.999239,488.390352 168.927495,457.298511 C204.70171,434.637536 228.228931,376.630203 201.461725,341.641181 C174.690787,306.652159 129.711729,287.203473 86.4609124,290.32643 C31.3923613,297.521513 -13.0865146,354.899787 3.52774158,407.554544 C5.17759582,413.312843 7.48813829,418.985532 10.634806,424.69172"/>
    <path fill="#6CDF8A" d="M41.7389959,419.812093 C57.1717225,449.238471 100.785464,454.237647 127.205399,437.426291 C146.517715,425.182955 159.225048,393.831244 144.767804,374.912429 C130.318006,356.008481 106.027751,345.500919 82.6831924,347.173505 C52.9533198,351.072491 28.9348592,382.085968 37.9040843,410.545962 C38.797656,413.656973 40.0374866,416.719666 41.7389959,419.812093"/>
    <path fill="#54D275" d="M167.770654,54.5931181 C195.58176,-3.00465586 271.276889,-14.3106651 316.382046,17.2896121 C349.369399,40.3034237 370.197808,100.590979 344.469917,137.775435 C318.749505,174.952451 276.307274,196.228879 235.948257,193.814401 C184.615896,187.374552 144.185818,128.162165 160.776737,72.6849651 C162.437324,66.6134261 164.715023,60.6274541 167.770654,54.5931181"/>
    <path fill="#6CDF8A" d="M255.760759,80.1996706 C268.057744,54.6683757 301.531007,49.6571445 321.478704,63.6626077 C336.061595,73.8706712 345.283402,100.593526 333.898547,117.074908 C322.532306,133.552579 303.757346,142.977405 285.909406,141.919479 C263.210431,139.061221 245.332708,112.813506 252.67069,88.2176405 C253.404116,85.5338478 254.40932,82.8834633 255.760759,80.1996706"/>
    <path fill="#F5F5F5" d="M68.041808,348.080411 L175.463788,399.129027 L116.020987,403.299153 L123.321111,409.546883 L187.976686,406.424883 L250.093088,440.628873 L248.898183,631 C261.246782,630.492722 273.591646,630.045123 285.940245,629.728074 L283.22557,465.575033 L449,408.823266 C447.192706,405.839275 446.169568,402.381576 445.952992,398.849278 L380.983754,417.767777 L404.108904,357.483711 L397.86179,357.483711 L371.540268,417.875946 L280.585576,448.670727 L276.627452,314.741779 L303.975846,289.47857 L369.781517,288.575913 L372.835994,282.473653 L311.55976,282.473653 L373.623884,225.143737 L371.540268,215.766547 L329.53935,252.600179 L346.365109,187.877427 L341.271825,189.910271 L319.065258,261.783409 L277.676728,298.079922 L268.289254,97 L258.905514,97 L257.859972,200.145358 L207.800911,154.303805 L198.409703,155.337012 L255.768888,211.600151 L251.821967,343.585776 L195.284279,297.028066 L190.067771,252.22345 L185.89307,244.942513 L185.89307,290.780336 L147.308834,265.778226 L136.879552,264.7301 L251.821967,357.200232 L251.063949,419.192632 L136.879552,365.790394 L121.230027,328.285365 L112.891829,326.204032 L127.495811,362.664664 L67,343.917745 L68.041808,348.080411 Z"/>
  </g>
</svg>
