<svg xmlns="http://www.w3.org/2000/svg" width="179" height="259" viewBox="0 0 179 259">
  <g fill="none" fill-rule="evenodd" transform="rotate(-40 150.97 103.874)">
    <g transform="translate(.059 151.415)">
      <path fill="#2AC653" d="M23,0 C23,0 7.99632441,2.63535191 2.74885512,10.5792463 C-2.49412341,18.5231407 1.37467831,29 1.37467831,29 C1.37467831,29 14.09255,24.5172308 18.392466,18.3406248 C22.6878912,12.1706961 23,0 23,0"/>
      <path fill="#77E995" d="M14.5263158,9.66666667 C14.5263158,9.66666667 6.62898034,11.2013601 3.86757018,15.8358073 C1.10828582,20.4725904 3.14479924,26.5833333 3.14479924,26.5833333 C3.14479924,26.5833333 9.84318524,23.971785 12.0986557,20.3698104 C14.3626294,16.7654999 14.5263158,9.66666667 14.5263158,9.66666667"/>
    </g>
    <g transform="rotate(31 70.973 389.317)">
      <path fill="#47D76D" d="M2.37569434,1.56319402e-13 C2.37569434,1.56319402e-13 -3.87605092,22.7292588 3.90366564,35.3685884 C11.6903752,48.0079179 29.1484088,49.5882683 29.1484088,49.5882683 C29.1484088,49.5882683 31.2533029,28.814476 25.3477113,18.6828672 C19.4526093,8.55473172 2.37569434,1.56319402e-13 2.37569434,1.56319402e-13"/>
      <path fill="#77E995" d="M11.0487671,18.3553353 C11.0487671,18.3553353 7.5662513,30.9981381 11.8949206,38.024619 C16.2200933,45.0545731 25.9263824,45.9263708 25.9263824,45.9263708 C25.9263824,45.9263708 27.101207,34.3776566 23.8179918,28.7509147 C20.5382731,23.1172261 11.0487671,18.3553353 11.0487671,18.3553353"/>
    </g>
    <g transform="translate(41.45 .108)">
      <path fill="#2AC653" d="M25.6363767,41.06633 C43.1527127,50.7471065 64.3726219,40.6611874 64.3726219,40.6611874 C64.3726219,40.6611874 52.7785253,14.550811 39.1292065,6.5652365 C25.4729326,-1.41678411 0,0.118493232 0,0.118493232 C0,0.118493232 8.12004063,31.3926612 25.6363767,41.06633 Z"/>
      <path fill="#77E995" d="M22.3967065,15.9791164 C22.3967065,15.9791164 26.9105449,33.3718185 36.6476386,38.752397 C46.3847323,44.1329754 58.1770483,38.5142868 58.1770483,38.5142868 C58.1770483,38.5142868 51.7401338,23.9966759 44.1556334,19.5649841 C36.5607003,15.1297385 22.3967065,15.9791164 22.3967065,15.9791164"/>
    </g>
  </g>
</svg>
