<svg xmlns="http://www.w3.org/2000/svg" width="158" height="186" viewBox="0 0 158 186">
  <g fill="none" fill-rule="evenodd">
    <g transform="translate(24 49)">
      <path fill="#2AC653" d="M19,0 C19,0 6.6056593,2.09010669 2.27079336,8.39043672 C-2.06036281,14.6907668 1.13560382,23 1.13560382,23 C1.13560382,23 11.6416717,19.4447003 15.1937762,14.5460127 C18.742171,9.65262108 19,0 19,0"/>
      <path fill="#77E995" d="M12,7.66666667 C12,7.66666667 5.4761142,8.88383734 3.19494928,12.5594334 C0.915540459,16.2368821 2.59787763,21.0833333 2.59787763,21.0833333 C2.59787763,21.0833333 8.13132694,19.0121053 9.9945417,16.1553668 C11.8647808,13.2967758 12,7.66666667 12,7.66666667"/>
    </g>
    <g transform="translate(0 146)">
      <path fill="#47D76D" d="M1.89024504,1.56319402e-13 C1.89024504,1.56319402e-13 -3.08401882,18.2008241 3.10599074,28.3219731 C9.30156436,38.443122 23.192224,39.7086133 23.192224,39.7086133 C23.192224,39.7086133 24.8670041,23.0736609 20.1681609,14.9606101 C15.4776638,6.85034073 1.89024504,1.56319402e-13 1.89024504,1.56319402e-13"/>
      <path fill="#77E995" d="M8.79106244,14.6983336 C8.79106244,14.6983336 6.02016378,24.8222639 9.46431292,30.4488328 C12.90568,36.078183 20.6285863,36.7762892 20.6285863,36.7762892 C20.6285863,36.7762892 21.5633473,27.5284683 18.9510242,23.0227631 C16.3414831,18.5114952 8.79106244,14.6983336 8.79106244,14.6983336"/>
    </g>
    <g transform="translate(106)">
      <path fill="#2AC653" d="M20.5091013,32.138867 C34.5221702,39.7151269 51.4980975,31.8217988 51.4980975,31.8217988 C51.4980975,31.8217988 42.2228203,11.3875912 31.3033652,5.13801117 C20.3783461,-1.10878756 0,0.0927338339 0,0.0927338339 C0,0.0927338339 6.4960325,24.5681697 20.5091013,32.138867 Z"/>
      <path fill="#77E995" d="M17.9173652,12.5053955 C17.9173652,12.5053955 21.5284359,26.1170754 29.3181109,30.3279628 C37.1077859,34.5388503 46.5416386,30.1416158 46.5416386,30.1416158 C46.5416386,30.1416158 41.3921071,18.7800072 35.3245067,15.3117267 C29.2485602,11.8406649 17.9173652,12.5053955 17.9173652,12.5053955"/>
    </g>
  </g>
</svg>
