<svg xmlns="http://www.w3.org/2000/svg" width="258" height="316" viewBox="0 0 258 316">
  <g fill="none" fill-rule="evenodd">
    <path fill="#47D76D" d="M255.994862,201.755873 C248.111942,225.503701 215.871025,234.665195 193.814735,225.503701 C177.699005,218.838263 164.123285,197.177912 172.607637,181.350979 C181.090098,165.518475 198.05502,154.689228 215.871025,153.02519 C238.778398,152.191314 260.838471,172.18577 257.700811,194.405134 C257.432247,196.828761 256.878098,199.256102 255.994862,201.755873"/>
    <path fill="#77E995" d="M237.656908,207.361661 C232.372493,223.60891 210.758186,229.874631 195.965203,223.60891 C185.159926,219.046893 176.060449,204.2288 181.748326,193.395421 C187.43245,182.565802 198.81008,175.158636 210.758186,174.017192 C226.112263,173.44741 240.901493,187.125939 238.799737,202.329527 C238.621464,203.989981 238.249903,205.650435 237.656908,207.361661"/>
    <path fill="#54D275" d="M151.292272,94.0187103 C165.517538,66.9436266 205.72091,62.3401035 230.068071,77.8054979 C247.871015,89.0727458 259.579274,117.917419 246.256787,135.318995 C232.9343,152.71687 210.548733,162.392228 189.03065,160.837359 C161.624073,157.259309 139.48742,128.72561 147.75546,102.544576 C148.578364,99.6791742 149.728199,96.8563464 151.292272,94.0187103"/>
    <path fill="#77E995" d="M194.347279,97.8759111 C200.654784,86.1060881 218.479697,84.1042943 229.274021,90.8288723 C237.1686,95.7273795 242.359962,108.268935 236.454788,115.835897 C230.547759,123.399235 220.619279,127.602096 211.080152,126.930001 C198.928656,125.373855 189.11142,112.968168 192.778746,101.5824 C193.14585,100.337846 193.652007,99.1114074 194.347279,97.8759111"/>
    <path fill="#54D275" d="M110.993013,103.241702 C103.11215,79.4972084 70.8738042,70.3337097 48.8179793,79.4972084 C32.6988063,86.162753 19.1233723,107.821594 27.6075457,123.650637 C36.0917191,139.479681 53.0562835,150.309101 70.8738042,151.975023 C93.7788029,152.805198 115.83841,132.815993 112.700817,110.596273 C112.432259,108.172608 111.880012,105.743371 110.993013,103.241702"/>
    <path fill="#6CDF8A" d="M103.812222,106.487816 C99.1559063,92.115945 80.1064879,86.571457 67.0721815,92.115945 C57.5474723,96.146412 49.5279486,109.261004 54.5408547,118.841623 C59.551884,128.418466 69.5776961,134.976706 80.1064879,135.984794 C93.6418973,136.488839 106.674327,124.386111 104.823812,110.935489 C104.660531,109.470551 104.337723,108.001837 103.812222,106.487816"/>
    <path fill="#54D275" d="M5.29243866,212.981828 C19.5159956,240.055404 59.7179311,244.658986 84.0672043,229.197097 C101.870335,217.927856 113.578717,189.080966 100.257948,171.68102 C86.9353213,154.281073 64.551377,144.609295 43.0274963,146.162333 C15.6224896,149.740428 -6.51253777,178.274489 1.75558971,204.459557 C2.57664393,207.323144 3.72649136,210.144156 5.29243866,212.981828"/>
    <path fill="#6CDF8A" d="M20.8445458,211.134167 C28.4938103,226.14162 50.1110562,228.6912 63.2061541,220.117408 C72.7783459,213.873307 79.0767632,197.883935 71.9109986,188.235339 C64.7489249,178.594325 52.7094071,173.235468 41.1386258,174.088488 C26.4029498,176.07697 14.4981476,191.893844 18.9437635,206.408441 C19.3866643,207.995056 20.001189,209.55703 20.8445458,211.134167"/>
    <path fill="#54D275" d="M84.4123888,27.2965591 C98.3878192,-1.50232793 136.425573,-7.15533256 159.09148,8.64480607 C175.66804,20.1517118 186.134577,50.2954894 173.205988,68.8877175 C160.281158,87.4762253 138.953404,98.1144396 118.672491,96.9072004 C92.8773348,93.6872758 72.5607127,64.0810824 80.8978576,36.3424826 C81.7323238,33.306713 82.8768958,30.313727 84.4123888,27.2965591"/>
    <path fill="#6CDF8A" d="M128.38038,40.0998353 C134.528872,27.3341878 151.265503,24.8285722 161.239352,31.8313038 C168.530797,36.9353356 173.141701,50.2967628 167.449273,58.5374541 C161.766153,66.7762893 152.378673,71.4887027 143.454703,70.9597394 C132.105216,69.5306105 123.166354,56.4067528 126.835345,44.1088203 C127.202058,42.7669239 127.70466,41.4417317 128.38038,40.0998353"/>
    <path fill="#F5F5F5" d="M34.5236312,174.010394 L88.5158307,199.630298 L58.6388207,201.723171 L62.3079931,204.858735 L94.8050361,203.291889 L126.025845,220.457936 L125.425265,316 C131.63189,315.745411 137.836639,315.520773 144.043264,315.361655 L142.67882,232.977732 L226,204.495572 C225.091622,202.997988 224.577375,201.262664 224.468519,199.4899 L191.813824,208.984577 L203.436936,178.729653 L200.297025,178.729653 L187.06736,209.038865 L141.351912,224.493923 L139.362489,157.278645 L153.108279,144.599732 L186.18338,144.146713 L187.718615,141.084155 L156.920089,141.084155 L188.114623,112.311838 L187.06736,107.605683 L165.956951,126.091476 L174.413877,93.6088961 L171.853902,94.6291246 L160.692486,130.700288 L139.889874,148.916515 L135.171562,48 L130.455128,48 L129.929619,99.765835 L104.769044,76.7592132 L100.048856,77.2777514 L128.878603,105.514682 L126.89481,171.754659 L98.4779621,148.388617 L95.8560522,125.902406 L93.7577736,122.248303 L93.7577736,145.253052 L74.3646494,132.705177 L69.1227065,132.179151 L126.89481,178.587382 L126.513817,209.699673 L69.1227065,182.89855 L61.256977,164.075801 L57.0660502,163.031237 L64.4062717,181.329832 L34,171.921265 L34.5236312,174.010394 Z"/>
  </g>
</svg>
