<svg xmlns="http://www.w3.org/2000/svg" width="263" height="278" viewBox="0 0 263 278">
  <g fill="none" fill-rule="evenodd">
    <path fill="#2AC653" d="M262.483727,131.243118 C262.483727,203.725171 203.725212,262.486236 131.241863,262.486236 C58.7605028,262.486236 -7.10542736e-13,203.725171 -7.10542736e-13,131.243118 C-7.10542736e-13,58.7590763 58.7605028,1.70530257e-13 131.241863,1.70530257e-13 C203.725212,1.70530257e-13 262.483727,58.7590763 262.483727,131.243118"/>
    <path fill="#47D76D" d="M208.363383,115.006979 C208.363383,169.558895 164.142894,213.777819 109.595476,213.777819 C55.0460692,213.777819 10.8255798,169.558895 10.8255798,115.006979 C10.8255798,60.4570511 55.0460692,16.236139 109.595476,16.236139 C164.142894,16.236139 208.363383,60.4570511 208.363383,115.006979"/>
    <path fill="#77E995" d="M213.17473 104.116081C213.17473 120.411868 199.96485 133.623862 183.669219 133.623862 167.373588 133.623862 154.163708 120.411868 154.163708 104.116081 154.163708 87.8202938 167.373588 74.610288 183.669219 74.610288 199.96485 74.610288 213.17473 87.8202938 213.17473 104.116081M229.296191 153.428531C229.296191 165.537041 219.482228 175.349109 207.377811 175.349109 195.271406 175.349109 185.457444 165.537041 185.457444 153.428531 185.457444 141.323999 195.271406 131.509943 207.377811 131.509943 219.482228 131.509943 229.296191 141.323999 229.296191 153.428531M215.072705 202.740783C215.072705 214.847304 205.258743 224.659372 193.154326 224.659372 181.047921 224.659372 171.233959 214.847304 171.233959 202.740783 171.233959 190.634262 181.047921 180.820206 193.154326 180.820206 205.258743 180.820206 215.072705 190.634262 215.072705 202.740783"/>
    <path fill="#43E36E" d="M91.7959382 171.447146C91.7959382 183.553667 81.9819759 193.365735 69.8775589 193.365735 57.7711536 193.365735 47.9571913 183.553667 47.9571913 171.447146 47.9571913 159.340625 57.7711536 149.528558 69.8775589 149.528558 81.9819759 149.528558 91.7959382 159.340625 91.7959382 171.447146M94.6413113 123.084289C94.6413113 135.188822 84.827349 145.00089 72.7229319 145.00089 60.6165267 145.00089 50.8025644 135.188822 50.8025644 123.084289 50.8025644 110.97578 60.6165267 101.163712 72.7229319 101.163712 84.827349 101.163712 94.6413113 110.97578 94.6413113 123.084289"/>
    <path fill="#77E995" d="M145.848284,72.8262214 C145.848284,84.9307541 136.034322,94.742822 123.929905,94.742822 C111.823499,94.742822 102.009537,84.9307541 102.009537,72.8262214 C102.009537,60.7177121 111.823499,50.9056443 123.929905,50.9056443 C136.034322,50.9056443 145.848284,60.7177121 145.848284,72.8262214"/>
    <polygon fill="#F5F5F5" points="183.97 161.708 209.775 165.963 189.642 158.023 219.983 140.441 130.218 171.452 128.313 143.213 195.597 110.665 165.821 118.608 165.254 103.861 162.703 119.457 127.575 132.301 123.571 72.952 117.252 146.734 83.872 131.367 81.887 117.188 81.034 130.516 58.066 121.726 116.348 157.298 112.598 201.099 80.185 183.543 73.378 157.172 73.378 180.141 52.111 172.486 111.59 212.87 98.783 278 142.286 277.656 134.719 238.166 205.238 200.558 187.374 205.451 186.523 187.796 183.119 206.513 133.776 224.189 131.502 190.496"/>
  </g>
</svg>
